<mxfile host="app.diagrams.net" agent="Mozilla/5.0 (Windows NT 10.0; Win64; x64) AppleWebKit/537.36 (KHTML, like Gecko) Chrome/139.0.0.0 Safari/537.36" version="28.1.1">
  <diagram name="Page-1" id="oiCraLJD44TO92JT2NYh">
    <mxGraphModel dx="1042" dy="562" grid="1" gridSize="10" guides="1" tooltips="1" connect="1" arrows="1" fold="1" page="1" pageScale="1" pageWidth="827" pageHeight="1169" math="0" shadow="0">
      <root>
        <mxCell id="0" />
        <mxCell id="1" parent="0" />
        <mxCell id="J5zUVdkWbF9OXASGyJE--1" value="&lt;div&gt;Admin&lt;/div&gt;" style="shape=umlActor;verticalLabelPosition=bottom;verticalAlign=top;html=1;outlineConnect=0;" parent="1" vertex="1">
          <mxGeometry x="225" y="213" width="30" height="60" as="geometry" />
        </mxCell>
        <mxCell id="J5zUVdkWbF9OXASGyJE--2" value="" style="endArrow=none;html=1;rounded=0;" parent="1" edge="1">
          <mxGeometry width="50" height="50" relative="1" as="geometry">
            <mxPoint x="240" y="210" as="sourcePoint" />
            <mxPoint x="240.5" y="120" as="targetPoint" />
          </mxGeometry>
        </mxCell>
        <mxCell id="J5zUVdkWbF9OXASGyJE--3" value="" style="endArrow=none;html=1;rounded=0;" parent="1" edge="1">
          <mxGeometry width="50" height="50" relative="1" as="geometry">
            <mxPoint x="240" y="120" as="sourcePoint" />
            <mxPoint x="360" y="120" as="targetPoint" />
          </mxGeometry>
        </mxCell>
        <mxCell id="J5zUVdkWbF9OXASGyJE--4" value="Website" style="rounded=0;whiteSpace=wrap;html=1;" parent="1" vertex="1">
          <mxGeometry x="359" y="100" width="110" height="50" as="geometry" />
        </mxCell>
        <mxCell id="J5zUVdkWbF9OXASGyJE--5" value="" style="endArrow=none;html=1;rounded=0;" parent="1" edge="1">
          <mxGeometry width="50" height="50" relative="1" as="geometry">
            <mxPoint x="469" y="120" as="sourcePoint" />
            <mxPoint x="640" y="120" as="targetPoint" />
          </mxGeometry>
        </mxCell>
        <mxCell id="J5zUVdkWbF9OXASGyJE--6" value="Brand" style="rounded=0;whiteSpace=wrap;html=1;" parent="1" vertex="1">
          <mxGeometry x="640" y="100" width="110" height="50" as="geometry" />
        </mxCell>
        <mxCell id="J5zUVdkWbF9OXASGyJE--7" value="" style="endArrow=none;html=1;rounded=0;" parent="1" edge="1">
          <mxGeometry width="50" height="50" relative="1" as="geometry">
            <mxPoint x="694.5" y="150" as="sourcePoint" />
            <mxPoint x="694.5" y="290" as="targetPoint" />
          </mxGeometry>
        </mxCell>
        <mxCell id="J5zUVdkWbF9OXASGyJE--8" value="Product" style="rounded=0;whiteSpace=wrap;html=1;" parent="1" vertex="1">
          <mxGeometry x="640" y="260" width="110" height="50" as="geometry" />
        </mxCell>
        <mxCell id="J5zUVdkWbF9OXASGyJE--10" value="" style="endArrow=none;html=1;rounded=0;" parent="1" edge="1">
          <mxGeometry width="50" height="50" relative="1" as="geometry">
            <mxPoint x="700" y="440" as="sourcePoint" />
            <mxPoint x="481" y="440" as="targetPoint" />
          </mxGeometry>
        </mxCell>
        <mxCell id="J5zUVdkWbF9OXASGyJE--12" value="" style="endArrow=none;html=1;rounded=0;" parent="1" edge="1">
          <mxGeometry width="50" height="50" relative="1" as="geometry">
            <mxPoint x="370" y="439" as="sourcePoint" />
            <mxPoint x="240" y="439" as="targetPoint" />
          </mxGeometry>
        </mxCell>
        <mxCell id="J5zUVdkWbF9OXASGyJE--13" value="" style="endArrow=none;html=1;rounded=0;" parent="1" edge="1">
          <mxGeometry width="50" height="50" relative="1" as="geometry">
            <mxPoint x="240" y="440" as="sourcePoint" />
            <mxPoint x="240" y="300" as="targetPoint" />
          </mxGeometry>
        </mxCell>
        <mxCell id="J5zUVdkWbF9OXASGyJE--15" value="1:Login()&lt;div&gt;2: View Feedback()&lt;/div&gt;" style="text;html=1;align=center;verticalAlign=middle;resizable=0;points=[];autosize=1;strokeColor=none;fillColor=none;" parent="1" vertex="1">
          <mxGeometry x="234" y="73" width="130" height="40" as="geometry" />
        </mxCell>
        <mxCell id="J5zUVdkWbF9OXASGyJE--16" value="" style="endArrow=classic;html=1;rounded=0;entryX=0.991;entryY=1.047;entryDx=0;entryDy=0;entryPerimeter=0;" parent="1" edge="1">
          <mxGeometry width="50" height="50" relative="1" as="geometry">
            <mxPoint x="250" y="110" as="sourcePoint" />
            <mxPoint x="342.7999999999999" y="109.99999999999997" as="targetPoint" />
          </mxGeometry>
        </mxCell>
        <mxCell id="J5zUVdkWbF9OXASGyJE--17" value="3:Manage Brand()" style="text;html=1;align=center;verticalAlign=middle;resizable=0;points=[];autosize=1;strokeColor=none;fillColor=none;" parent="1" vertex="1">
          <mxGeometry x="500" y="70" width="120" height="30" as="geometry" />
        </mxCell>
        <mxCell id="J5zUVdkWbF9OXASGyJE--18" value="" style="endArrow=classic;html=1;rounded=0;exitX=-0.049;exitY=1.047;exitDx=0;exitDy=0;exitPerimeter=0;" parent="1" edge="1">
          <mxGeometry width="50" height="50" relative="1" as="geometry">
            <mxPoint x="495" y="100" as="sourcePoint" />
            <mxPoint x="625" y="100" as="targetPoint" />
          </mxGeometry>
        </mxCell>
        <mxCell id="J5zUVdkWbF9OXASGyJE--19" value="4:Manage Product()" style="text;html=1;align=center;verticalAlign=middle;resizable=0;points=[];autosize=1;strokeColor=none;fillColor=none;" parent="1" vertex="1">
          <mxGeometry x="702" y="183" width="130" height="30" as="geometry" />
        </mxCell>
        <mxCell id="J5zUVdkWbF9OXASGyJE--20" value="" style="endArrow=classic;html=1;rounded=0;exitX=0.168;exitY=0.82;exitDx=0;exitDy=0;exitPerimeter=0;" parent="1" edge="1">
          <mxGeometry width="50" height="50" relative="1" as="geometry">
            <mxPoint x="710" y="178.00000000000003" as="sourcePoint" />
            <mxPoint x="710.2" y="245.4" as="targetPoint" />
          </mxGeometry>
        </mxCell>
        <mxCell id="J5zUVdkWbF9OXASGyJE--21" value="5: Manage Order()" style="text;html=1;align=center;verticalAlign=middle;resizable=0;points=[];autosize=1;strokeColor=none;fillColor=none;" parent="1" vertex="1">
          <mxGeometry x="707" y="348" width="120" height="30" as="geometry" />
        </mxCell>
        <mxCell id="J5zUVdkWbF9OXASGyJE--22" value="" style="endArrow=classic;html=1;rounded=0;exitX=0.168;exitY=0.82;exitDx=0;exitDy=0;exitPerimeter=0;" parent="1" edge="1">
          <mxGeometry width="50" height="50" relative="1" as="geometry">
            <mxPoint x="710" y="329.3" as="sourcePoint" />
            <mxPoint x="710.2" y="396.7" as="targetPoint" />
          </mxGeometry>
        </mxCell>
        <mxCell id="J5zUVdkWbF9OXASGyJE--24" value="" style="endArrow=classic;html=1;rounded=0;entryX=0.192;entryY=-0.01;entryDx=0;entryDy=0;entryPerimeter=0;" parent="1" edge="1">
          <mxGeometry width="50" height="50" relative="1" as="geometry">
            <mxPoint x="610" y="450" as="sourcePoint" />
            <mxPoint x="497.96000000000004" y="450.19999999999993" as="targetPoint" />
          </mxGeometry>
        </mxCell>
        <mxCell id="J5zUVdkWbF9OXASGyJE--25" value="" style="endArrow=classic;html=1;rounded=0;" parent="1" edge="1">
          <mxGeometry width="50" height="50" relative="1" as="geometry">
            <mxPoint x="260" y="318" as="sourcePoint" />
            <mxPoint x="260" y="408" as="targetPoint" />
          </mxGeometry>
        </mxCell>
        <mxCell id="J5zUVdkWbF9OXASGyJE--26" value="7: Logout()" style="text;html=1;align=center;verticalAlign=middle;resizable=0;points=[];autosize=1;strokeColor=none;fillColor=none;" parent="1" vertex="1">
          <mxGeometry x="255" y="348" width="80" height="30" as="geometry" />
        </mxCell>
        <mxCell id="kVrEtyQDfEg3vnXYJ26I-1" value="Order" style="rounded=0;whiteSpace=wrap;html=1;" parent="1" vertex="1">
          <mxGeometry x="370" y="420" width="110" height="50" as="geometry" />
        </mxCell>
        <mxCell id="kVrEtyQDfEg3vnXYJ26I-4" value="6:Manage Order Status()" style="text;html=1;align=center;verticalAlign=middle;resizable=0;points=[];autosize=1;strokeColor=none;fillColor=none;" parent="1" vertex="1">
          <mxGeometry x="480" y="450" width="160" height="30" as="geometry" />
        </mxCell>
        <mxCell id="xivTu_o56PkSAFBPk4oM-1" value="" style="endArrow=none;html=1;rounded=0;" parent="1" edge="1">
          <mxGeometry width="50" height="50" relative="1" as="geometry">
            <mxPoint x="700" y="440" as="sourcePoint" />
            <mxPoint x="700" y="310" as="targetPoint" />
          </mxGeometry>
        </mxCell>
      </root>
    </mxGraphModel>
  </diagram>
</mxfile>
